<svg width="128" height="128" viewBox="0 0 128 128" fill="none" xmlns="http://www.w3.org/2000/svg">
<g clip-path="url(#clip0_175_3)">
<rect y="16" width="128" height="96" rx="8" fill="black"/>
<rect x="8" y="24" width="112" height="80" rx="7" fill="black"/>
<path d="M-6 81L25.4439 54.521C29.2165 51.344 34.7422 51.3921 38.4589 54.6344L71.235 83.2263C75.4853 86.934 81.9593 86.395 85.538 82.0355L134 23" stroke="#FFF500" stroke-width="8"/>
<path d="M-4.5 48.5L25.4482 73.5252C29.2219 76.6786 34.7282 76.6201 38.4341 73.3873L71.2575 44.7541C75.4992 41.0539 81.958 41.5821 85.5421 45.9225L133.5 104" stroke="#FF7BFA" stroke-width="8"/>
<rect y="24" width="16" height="80" fill="url(#paint0_linear_175_3)"/>
<mask id="mask0_175_3" style="mask-type:alpha" maskUnits="userSpaceOnUse" x="89" y="22" width="40" height="83">
<rect x="89" y="22" width="40" height="83" fill="#D9D9D9"/>
</mask>
<g mask="url(#mask0_175_3)">
<path d="M-6 81L27.6818 59.6824C31.1855 57.4649 35.6942 57.6396 39.0157 60.1216L71.3467 84.2811C75.6288 87.4809 81.6702 86.7472 85.0619 82.6155L134 23" stroke="#FFF500" stroke-width="8"/>
<rect width="16" height="80" transform="matrix(-1 0 0 1 128 24)" fill="url(#paint1_linear_175_3)"/>
</g>
</g>
<defs>
<linearGradient id="paint0_linear_175_3" x1="2" y1="64" x2="16" y2="64" gradientUnits="userSpaceOnUse">
<stop/>
<stop offset="1" stop-opacity="0"/>
</linearGradient>
<linearGradient id="paint1_linear_175_3" x1="2" y1="40" x2="16" y2="40" gradientUnits="userSpaceOnUse">
<stop/>
<stop offset="1" stop-opacity="0"/>
</linearGradient>
<clipPath id="clip0_175_3">
<rect width="128" height="128" fill="white"/>
</clipPath>
</defs>
</svg>
